<svg width="22" height="22" viewBox="0 0 22 22" fill="none" xmlns="http://www.w3.org/2000/svg">
<path d="M11 2.0625C9.23233 2.0625 7.50436 2.58668 6.0346 3.56874C4.56483 4.55081 3.41929 5.94665 2.74283 7.57977C2.06637 9.21288 1.88938 11.0099 2.23424 12.7436C2.57909 14.4773 3.43031 16.0698 4.68024 17.3198C5.93017 18.5697 7.52268 19.4209 9.25638 19.7658C10.9901 20.1106 12.7871 19.9336 14.4202 19.2572C16.0534 18.5807 17.4492 17.4352 18.4313 15.9654C19.4133 14.4956 19.9375 12.7677 19.9375 11C19.935 8.6304 18.9926 6.35856 17.317 4.683C15.6414 3.00743 13.3696 2.065 11 2.0625ZM8.73383 14.4375H13.2662C12.8047 16.0136 12.0313 17.4341 11 18.553C9.96875 17.4341 9.19532 16.0136 8.73383 14.4375ZM8.42188 13.0625C8.19386 11.697 8.19386 10.303 8.42188 8.9375H13.5781C13.8061 10.303 13.8061 11.697 13.5781 13.0625H8.42188ZM3.4375 11C3.43691 10.3026 3.53322 9.60843 3.72368 8.9375H7.02883C6.82373 10.3049 6.82373 11.6951 7.02883 13.0625H3.72368C3.53322 12.3916 3.43691 11.6974 3.4375 11ZM13.2662 7.5625H8.73383C9.19532 5.98641 9.96875 4.56586 11 3.44695C12.0313 4.56586 12.8047 5.98641 13.2662 7.5625ZM14.9712 8.9375H18.2763C18.6579 10.286 18.6579 11.714 18.2763 13.0625H14.9712C15.1763 11.6951 15.1763 10.3049 14.9712 8.9375ZM17.7349 7.5625H14.6902C14.3393 6.18192 13.7501 4.87321 12.9491 3.69531C13.9725 3.97033 14.927 4.45648 15.7512 5.1225C16.5754 5.78852 17.2512 6.61967 17.7349 7.5625ZM9.05094 3.69531C8.24991 4.87321 7.6607 6.18192 7.30985 7.5625H4.26508C4.74885 6.61967 5.42458 5.78852 6.24881 5.1225C7.07305 4.45648 8.02756 3.97033 9.05094 3.69531ZM4.26508 14.4375H7.30985C7.6607 15.8181 8.24991 17.1268 9.05094 18.3047C8.02756 18.0297 7.07305 17.5435 6.24881 16.8775C5.42458 16.2115 4.74885 15.3803 4.26508 14.4375ZM12.9491 18.3047C13.7501 17.1268 14.3393 15.8181 14.6902 14.4375H17.7349C17.2512 15.3803 16.5754 16.2115 15.7512 16.8775C14.927 17.5435 13.9725 18.0297 12.9491 18.3047Z" fill="#27AE60"/>
</svg>
