<svg width="22" height="22" viewBox="0 0 22 22" fill="none" xmlns="http://www.w3.org/2000/svg">
<path d="M2.75 17.4167H19.25V19.25H2.75V17.4167ZM5.5 14.6667C6.50833 14.6667 7.33333 13.8417 7.33333 12.8333C7.33333 12.375 7.15 11.9167 6.875 11.6417L8.06667 9.16667H8.25C8.70833 9.16667 9.16667 8.98333 9.44167 8.70833L11.9167 9.99167V10.0833C11.9167 11.0917 12.7417 11.9167 13.75 11.9167C14.7583 11.9167 15.5833 11.0917 15.5833 10.0833C15.5833 9.625 15.4 9.25833 15.125 8.89167L16.3167 6.41667H16.5C17.5083 6.41667 18.3333 5.59167 18.3333 4.58333C18.3333 3.575 17.5083 2.75 16.5 2.75C15.4917 2.75 14.6667 3.575 14.6667 4.58333C14.6667 5.04167 14.85 5.5 15.125 5.775L13.9333 8.25H13.75C13.2917 8.25 12.8333 8.43333 12.5583 8.70833L10.0833 7.51667V7.33333C10.0833 6.325 9.25833 5.5 8.25 5.5C7.24167 5.5 6.41667 6.325 6.41667 7.33333C6.41667 7.79167 6.6 8.25 6.875 8.525L5.68333 11H5.5C4.49167 11 3.66667 11.825 3.66667 12.8333C3.66667 13.8417 4.49167 14.6667 5.5 14.6667Z" fill="#8A899C"/>
</svg>
