<svg width="22" height="22" viewBox="0 0 22 22" fill="none" xmlns="http://www.w3.org/2000/svg">
<path d="M16.1397 9.62016L11.5823 2.36291C11.5162 2.27011 11.4288 2.19445 11.3275 2.14224C11.2263 2.09004 11.114 2.06281 11 2.06281C10.886 2.06281 10.7737 2.09004 10.6725 2.14224C10.5712 2.19445 10.4838 2.27011 10.4177 2.36291L5.83963 9.65454C5.20361 10.6805 4.84933 11.856 4.8125 13.0625C4.8125 14.7035 5.4644 16.2773 6.62478 17.4377C7.78516 18.5981 9.35897 19.25 11 19.25C12.641 19.25 14.2148 18.5981 15.3752 17.4377C16.5356 16.2773 17.1875 14.7035 17.1875 13.0625C17.148 11.8427 16.7865 10.6551 16.1397 9.62016ZM11 17.875C9.72415 17.8733 8.50102 17.3658 7.59886 16.4636C6.69669 15.5615 6.18914 14.3383 6.1875 13.0625C6.22404 12.1011 6.51283 11.1662 7.02488 10.3517L7.66769 9.32729L14.5936 16.2532C14.1437 16.7628 13.5907 17.171 12.9712 17.4507C12.3517 17.7304 11.6798 17.8746 11 17.875Z" fill="#27AE60"/>
</svg>
