<svg width="22" height="22" viewBox="0 0 22 22" fill="none" xmlns="http://www.w3.org/2000/svg">
<path d="M11 1.8315C16.0636 1.8315 20.1685 5.93633 20.1685 11C20.1685 16.0627 16.0636 20.1667 11 20.1667C5.93631 20.1676 1.83331 16.0627 1.83331 11C1.8324 5.93633 5.93631 1.8315 11 1.8315ZM11 3.2065C9.96947 3.19532 8.94698 3.38864 7.99168 3.77526C7.03638 4.16189 6.16725 4.73414 5.43459 5.4589C4.70192 6.18366 4.12028 7.04654 3.72332 7.99758C3.32635 8.94863 3.12196 9.96897 3.12196 10.9995C3.12196 12.0301 3.32635 13.0504 3.72332 14.0015C4.12028 14.9525 4.70192 15.8154 5.43459 16.5402C6.16725 17.2649 7.03638 17.8372 7.99168 18.2238C8.94698 18.6104 9.96947 18.8038 11 18.7926C13.0522 18.7703 15.0128 17.9395 16.4561 16.4804C17.8994 15.0214 18.709 13.0519 18.709 10.9995C18.709 8.94721 17.8994 6.97773 16.4561 5.51867C15.0128 4.05961 13.0522 3.22875 11 3.2065ZM10.9963 9.62316C11.1626 9.62295 11.3233 9.68301 11.4487 9.79223C11.5741 9.90145 11.6557 10.0524 11.6783 10.2172L11.6847 10.3107L11.6884 15.3542C11.6902 15.5296 11.6248 15.6991 11.5057 15.8279C11.3866 15.9567 11.2228 16.0351 11.0478 16.0471C10.8727 16.059 10.6998 16.0036 10.5642 15.8922C10.4287 15.7807 10.341 15.6217 10.3189 15.4477L10.3134 15.3551L10.3097 10.3116C10.3097 10.1292 10.3822 9.95438 10.5111 9.82544C10.64 9.69651 10.8149 9.62408 10.9972 9.62408L10.9963 9.62316ZM11.0009 6.41758C11.1235 6.4137 11.2457 6.4345 11.3601 6.47875C11.4746 6.523 11.579 6.5898 11.6671 6.67518C11.7552 6.76055 11.8253 6.86277 11.8731 6.97575C11.921 7.08873 11.9456 7.21018 11.9456 7.33287C11.9456 7.45557 11.921 7.57701 11.8731 7.69C11.8253 7.80298 11.7552 7.90519 11.6671 7.99057C11.579 8.07594 11.4746 8.14274 11.3601 8.18699C11.2457 8.23124 11.1235 8.25205 11.0009 8.24816C10.7632 8.24064 10.5377 8.14091 10.3722 7.97008C10.2067 7.79925 10.1141 7.57073 10.1141 7.33287C10.1141 7.09502 10.2067 6.86649 10.3722 6.69566C10.5377 6.52483 10.7632 6.4251 11.0009 6.41758Z" fill="#8A899C"/>
</svg>
