<svg width="22" height="22" viewBox="0 0 22 22" fill="none" xmlns="http://www.w3.org/2000/svg">
<g clip-path="url(#clip0_622_65)">
<path d="M20.3437 17.1563H18.6961C18.5836 17.1563 18.4781 17.2055 18.4078 17.2922C18.2437 17.4914 18.0679 17.6836 17.8828 17.8664C17.1255 18.6245 16.2285 19.2286 15.2414 19.6453C14.2187 20.0773 13.1195 20.2989 12.0093 20.2969C10.8867 20.2969 9.79919 20.0766 8.77732 19.6453C7.79019 19.2286 6.89319 18.6245 6.13591 17.8664C5.37727 17.1109 4.77236 16.2155 4.35466 15.2297C3.92107 14.2078 3.7031 13.1227 3.7031 12C3.7031 10.8773 3.92341 9.79219 4.35466 8.77032C4.77185 7.7836 5.37185 6.89532 6.13591 6.1336C6.89997 5.37188 7.78825 4.77188 8.77732 4.35469C9.79919 3.92344 10.8867 3.70313 12.0093 3.70313C13.132 3.70313 14.2195 3.9211 15.2414 4.35469C16.2304 4.77188 17.1187 5.37188 17.8828 6.1336C18.0679 6.31876 18.2414 6.51094 18.4078 6.70782C18.4781 6.79454 18.5859 6.84375 18.6961 6.84375H20.3437C20.4914 6.84375 20.5828 6.67969 20.5008 6.55547C18.7031 3.76172 15.5578 1.9125 11.9836 1.92188C6.36794 1.93594 1.8656 6.49454 1.92185 12.1031C1.9781 17.6227 6.47341 22.0781 12.0093 22.0781C15.5742 22.0781 18.7054 20.2313 20.5008 17.4445C20.5804 17.3203 20.4914 17.1563 20.3437 17.1563ZM22.4273 11.8523L19.1015 9.22735C18.9773 9.12891 18.7968 9.21797 18.7968 9.37501V11.1563H11.4375C11.3343 11.1563 11.25 11.2406 11.25 11.3438V12.6563C11.25 12.7594 11.3343 12.8438 11.4375 12.8438H18.7968V14.625C18.7968 14.782 18.9797 14.8711 19.1015 14.7727L22.4273 12.1477C22.4497 12.1301 22.4678 12.1077 22.4803 12.0821C22.4928 12.0565 22.4993 12.0285 22.4993 12C22.4993 11.9715 22.4928 11.9435 22.4803 11.9179C22.4678 11.8923 22.4497 11.8699 22.4273 11.8523Z" fill="white"/>
<path d="M18.6484 15.7266H17.1381C17.0349 15.7266 16.9383 15.7717 16.8738 15.8512C16.7234 16.0338 16.5623 16.21 16.3926 16.3775C15.6984 17.0724 14.8761 17.6262 13.9713 18.0082C13.0338 18.4042 12.0262 18.6073 11.0086 18.6055C9.97948 18.6055 8.98261 18.4035 8.04589 18.0082C7.14103 17.6262 6.31877 17.0724 5.6246 16.3775C4.92918 15.685 4.37467 14.8642 3.99179 13.9605C3.59433 13.0238 3.39452 12.0291 3.39452 11C3.39452 9.9709 3.59647 8.97617 3.99179 8.03946C4.37421 7.13496 4.92421 6.32071 5.6246 5.62246C6.32499 4.92422 7.13925 4.37422 8.04589 3.9918C8.98261 3.59649 9.97948 3.39453 11.0086 3.39453C12.0377 3.39453 13.0346 3.59434 13.9713 3.9918C14.8779 4.37422 15.6922 4.92422 16.3926 5.62246C16.5623 5.79219 16.7213 5.96836 16.8738 6.14883C16.9383 6.22832 17.0371 6.27344 17.1381 6.27344H18.6484C18.7838 6.27344 18.8676 6.12305 18.7924 6.00918C17.1445 3.44824 14.2613 1.75313 10.9849 1.76172C5.83729 1.77461 1.71015 5.95332 1.76171 11.0945C1.81327 16.1541 5.93397 20.2383 11.0086 20.2383C14.2764 20.2383 17.1467 18.5453 18.7924 15.9908C18.8654 15.877 18.7838 15.7266 18.6484 15.7266ZM20.5584 10.8647L17.5098 8.4584C17.3959 8.36817 17.2305 8.44981 17.2305 8.59375V10.2266H10.4844C10.3898 10.2266 10.3125 10.3039 10.3125 10.3984V11.6016C10.3125 11.6961 10.3898 11.7734 10.4844 11.7734H17.2305V13.4063C17.2305 13.5502 17.398 13.6318 17.5098 13.5416L20.5584 11.1354C20.5789 11.1193 20.5955 11.0987 20.607 11.0753C20.6184 11.0518 20.6243 11.0261 20.6243 11C20.6243 10.9739 20.6184 10.9482 20.607 10.9247C20.5955 10.9013 20.5789 10.8807 20.5584 10.8647Z" fill="#8A899C"/>
</g>
<defs>
<clipPath id="clip0_622_65">
<rect width="22" height="22" fill="white"/>
</clipPath>
</defs>
</svg>
