<svg width="20" height="20" viewBox="0 0 20 20" fill="none" xmlns="http://www.w3.org/2000/svg">
<path d="M19 6C18.4701 5.99842 17.9623 5.7872 17.5875 5.41247C17.2128 5.03773 17.0016 4.52995 17 4C17.0018 3.66284 17.0914 3.33197 17.26 3.04L12 0C11.9981 0.351603 11.9038 0.69653 11.7265 1.00018C11.5493 1.30383 11.2953 1.55552 10.99 1.73C10.69 1.90677 10.3482 2 10 2C9.65181 2 9.30998 1.90677 9.01 1.73C8.70474 1.55552 8.45073 1.30383 8.27346 1.00018C8.09618 0.69653 8.00188 0.351603 8 0L2.74 3.04C2.90862 3.33197 2.99823 3.66284 3 4C2.99842 4.52995 2.7872 5.03773 2.41247 5.41247C2.03773 5.7872 1.52995 5.99842 1 6C0.831109 5.99706 0.663206 5.97355 0.5 5.93V13.07C0.663202 13.0264 0.831108 13.0029 1 13C1.28483 13.001 1.56613 13.0631 1.8249 13.1822C2.08366 13.3012 2.31388 13.4744 2.5 13.69C2.66982 13.8914 2.80194 14.1217 2.89 14.37C2.96207 14.5723 2.99927 14.7853 3 15C3.00091 15.2616 2.95015 15.5209 2.85062 15.7628C2.75109 16.0048 2.60475 16.2247 2.42 16.41L6.26 18.62L8.04 19.65C8.05269 19.5543 8.07617 19.4604 8.11 19.37C8.11999 19.3477 8.12673 19.3242 8.13 19.3C8.16394 19.2171 8.20405 19.1369 8.25 19.06C8.26 19.03 8.28 19 8.29 18.97C8.34 18.9 8.38 18.83 8.43 18.77C8.46 18.74 8.48 18.71 8.51 18.68C8.55823 18.6218 8.6118 18.5682 8.67 18.52C8.70174 18.4816 8.73878 18.4479 8.78 18.42C8.83433 18.3798 8.8911 18.3431 8.95 18.31C8.99772 18.2764 9.04786 18.2463 9.1 18.22C9.16 18.19 9.21 18.17 9.27 18.14L9.48 18.08C9.52524 18.0621 9.57213 18.0487 9.62 18.04C9.87053 17.9867 10.1295 17.9867 10.38 18.04C10.4279 18.0487 10.4748 18.0621 10.52 18.08L10.73 18.14C10.79 18.17 10.84 18.19 10.9 18.22C10.9521 18.2463 11.0023 18.2764 11.05 18.31C11.1089 18.3431 11.1657 18.3798 11.22 18.42C11.2612 18.4479 11.2983 18.4816 11.33 18.52C11.3882 18.5682 11.4418 18.6218 11.49 18.68C11.52 18.71 11.54 18.74 11.57 18.77C11.62 18.83 11.66 18.9 11.71 18.97C11.72 19 11.74 19.03 11.75 19.06C11.796 19.1369 11.8361 19.2171 11.87 19.3C11.8733 19.3242 11.88 19.3477 11.89 19.37C11.9238 19.4604 11.9473 19.5543 11.96 19.65L13.74 18.62L17.58 16.41C17.3953 16.2247 17.2489 16.0048 17.1494 15.7628C17.0499 15.5209 16.9991 15.2616 17 15C17.0007 14.7853 17.0379 14.5723 17.11 14.37C17.1981 14.1217 17.3302 13.8914 17.5 13.69C17.6861 13.4744 17.9163 13.3012 18.1751 13.1822C18.4339 13.0631 18.7152 13.001 19 13C19.1689 13.0029 19.3368 13.0264 19.5 13.07V5.93C19.3368 5.97355 19.1689 5.99706 19 6ZM10 11C9.80222 11 9.60888 10.9414 9.44443 10.8315C9.27998 10.7216 9.15181 10.5654 9.07612 10.3827C9.00043 10.2 8.98063 9.99889 9.01921 9.80491C9.0578 9.61093 9.15304 9.43275 9.29289 9.29289C9.43275 9.15304 9.61093 9.0578 9.80491 9.01921C9.99889 8.98063 10.2 9.00043 10.3827 9.07612C10.5654 9.15181 10.7216 9.27998 10.8315 9.44443C10.9414 9.60888 11 9.80222 11 10C10.9992 10.265 10.8936 10.5189 10.7062 10.7062C10.5189 10.8936 10.265 10.9992 10 11ZM17.5 11.3C16.7629 11.5986 16.1314 12.11 15.6861 12.769C15.2409 13.428 15.002 14.2047 15 15C15.0052 15.188 15.0252 15.3752 15.06 15.56L12.59 16.98C12.1308 16.5827 11.587 16.2955 11 16.14V12.82C11.6672 12.5841 12.2296 12.1199 12.5876 11.5095C12.9457 10.8991 13.0765 10.1818 12.9568 9.48427C12.8371 8.78677 12.4747 8.15404 11.9337 7.6979C11.3926 7.24175 10.7077 6.99157 10 6.99157C9.29231 6.99157 8.60741 7.24175 8.06634 7.6979C7.52527 8.15404 7.16288 8.78677 7.0432 9.48427C6.92353 10.1818 7.05429 10.8991 7.41237 11.5095C7.77045 12.1199 8.33279 12.5841 9 12.82V16.14C8.41302 16.2955 7.86924 16.5827 7.41 16.98L4.94 15.56C4.97478 15.3752 4.99485 15.188 5 15C4.99799 14.2047 4.75912 13.428 4.31385 12.769C3.86859 12.11 3.23712 11.5986 2.5 11.3V7.7C3.23079 7.40388 3.85788 6.89858 4.30263 6.24748C4.74737 5.59637 4.98997 4.82844 5 4.04L7.15 2.8C7.52108 3.1799 7.96437 3.48178 8.4538 3.68788C8.94324 3.89399 9.46894 4.00016 10 4.00016C10.5311 4.00016 11.0568 3.89399 11.5462 3.68788C12.0356 3.48178 12.4789 3.1799 12.85 2.8L15 4.04C15.01 4.82844 15.2526 5.59637 15.6974 6.24748C16.1421 6.89858 16.7692 7.40388 17.5 7.7V11.3Z" fill="black"/>
</svg>
