<svg width="22" height="22" viewBox="0 0 22 22" fill="none" xmlns="http://www.w3.org/2000/svg">
<path d="M16.8438 20.625C16.18 20.6631 15.5188 20.5155 14.9343 20.1987C14.3499 19.8819 13.8653 19.4084 13.5349 18.8315C13.2046 18.2545 13.0417 17.5969 13.0643 16.9325C13.087 16.268 13.2945 15.6231 13.6634 15.07L16.1494 11.3699C16.2259 11.256 16.3293 11.1627 16.4504 11.0982C16.5715 11.0337 16.7066 11 16.8438 11C16.9809 11 17.116 11.0337 17.2371 11.0982C17.3582 11.1627 17.4616 11.256 17.5381 11.3699L19.9788 14.9978C20.3825 15.5951 20.6067 16.2956 20.625 17.0163C20.6005 17.9957 20.1887 18.9255 19.48 19.6019C18.7712 20.2783 17.8232 20.6462 16.8438 20.625ZM16.8438 12.8013L14.8252 15.8036C14.5877 16.1488 14.4534 16.5546 14.4382 16.9734C14.4229 17.3922 14.5273 17.8067 14.7391 18.1683C14.9509 18.53 15.2613 18.8238 15.6341 19.0153C16.0068 19.2069 16.4264 19.2883 16.8438 19.25C17.4586 19.2714 18.057 19.0484 18.5079 18.6298C18.9588 18.2112 19.2257 17.6311 19.25 17.0163C19.2341 16.5553 19.0835 16.1091 18.8169 15.7328L16.8438 12.8013ZM7.5625 11V7.5625H8.25C8.97907 7.56159 9.67801 7.27157 10.1935 6.75604C10.7091 6.24051 10.9991 5.54157 11 4.8125V2.75H8.9375C8.23349 2.75115 7.55704 3.02375 7.04894 3.51106C6.69293 2.86465 6.1701 2.32553 5.53493 1.94984C4.89975 1.57415 4.17546 1.37565 3.4375 1.375H1.375V3.4375C1.37627 4.53113 1.81128 5.5796 2.58459 6.35291C3.3579 7.12622 4.40637 7.56123 5.5 7.5625H6.1875V11H1.375V12.375H11V11H7.5625ZM8.9375 4.125H9.625V4.8125C9.62464 5.17706 9.47965 5.52659 9.22187 5.78437C8.96409 6.04215 8.61456 6.18714 8.25 6.1875H7.5625V5.5C7.56286 5.13544 7.70785 4.78591 7.96563 4.52813C8.22341 4.27035 8.57294 4.12536 8.9375 4.125ZM5.5 6.1875C4.77093 6.18659 4.07199 5.89657 3.55646 5.38104C3.04093 4.86551 2.75091 4.16657 2.75 3.4375V2.75H3.4375C4.16657 2.75091 4.86551 3.04093 5.38104 3.55646C5.89657 4.07199 6.18659 4.77093 6.1875 5.5V6.1875H5.5ZM1.375 14.4375H11V15.8125H1.375V14.4375ZM1.375 17.875H11V19.25H1.375V17.875Z" fill="#27AE60"/>
</svg>
