<svg width="22" height="22" viewBox="0 0 22 22" fill="none" xmlns="http://www.w3.org/2000/svg">
<path d="M17.875 8.9375H20.625V10.3125H17.875V8.9375ZM15.8125 5.21537L17.7568 3.27112L18.7289 4.24325L16.7846 6.1875L15.8125 5.21537ZM15.8125 14.0346L16.7846 13.0625L18.7289 15.0067L17.7568 15.9789L15.8125 14.0346ZM11.6875 1.375H13.0625V4.125H11.6875V1.375ZM12.375 5.5C12.1445 5.5015 11.9146 5.5222 11.6875 5.56188V6.97263C11.9116 6.91085 12.1426 6.87804 12.375 6.875C13.1044 6.875 13.8038 7.16473 14.3195 7.68046C14.8353 8.19618 15.125 8.89565 15.125 9.625C15.125 10.3543 14.8353 11.0538 14.3195 11.5695C13.8038 12.0853 13.1044 12.375 12.375 12.375V13.75C13.469 13.75 14.5182 13.3154 15.2918 12.5418C16.0654 11.7682 16.5 10.719 16.5 9.625C16.5 8.53098 16.0654 7.48177 15.2918 6.70818C14.5182 5.9346 13.469 5.5 12.375 5.5ZM6.875 13.8765V4.8125H5.5V13.8765C5.04129 14.0387 4.65469 14.3578 4.40851 14.7775C4.16233 15.1971 4.07243 15.6903 4.15471 16.1698C4.23698 16.6493 4.48613 17.0843 4.85811 17.3979C5.2301 17.7115 5.70097 17.8835 6.1875 17.8835C6.67404 17.8835 7.14491 17.7115 7.5169 17.3979C7.88888 17.0843 8.13803 16.6493 8.2203 16.1698C8.30258 15.6903 8.21268 15.1971 7.9665 14.7775C7.72032 14.3578 7.33371 14.0387 6.875 13.8765Z" fill="#27AE60"/>
<path d="M6.18749 20.625C5.2401 20.6261 4.31351 20.3472 3.52407 19.8234C2.73464 19.2996 2.11755 18.5543 1.7503 17.681C1.38305 16.8077 1.28202 15.8453 1.45987 14.9148C1.63773 13.9842 2.08655 13.1269 2.74999 12.4506V4.8125C2.74999 3.90082 3.11215 3.02648 3.75681 2.38182C4.40146 1.73716 5.27581 1.375 6.18749 1.375C7.09917 1.375 7.97351 1.73716 8.61817 2.38182C9.26282 3.02648 9.62499 3.90082 9.62499 4.8125V12.4506C10.2884 13.1269 10.7372 13.9842 10.9151 14.9148C11.093 15.8453 10.9919 16.8077 10.6247 17.681C10.2574 18.5543 9.64034 19.2996 8.8509 19.8234C8.06147 20.3472 7.13488 20.6261 6.18749 20.625ZM6.18749 2.75C5.64065 2.75055 5.11636 2.96802 4.72968 3.3547C4.34301 3.74137 4.12553 4.26566 4.12499 4.8125V13.0508L3.89674 13.2564C3.37759 13.7204 3.01159 14.3311 2.84719 15.0077C2.68278 15.6843 2.72772 16.3949 2.97605 17.0454C3.22438 17.6959 3.6644 18.2556 4.23787 18.6505C4.81133 19.0454 5.4912 19.2569 6.18749 19.2569C6.88377 19.2569 7.56364 19.0454 8.13711 18.6505C8.71057 18.2556 9.15059 17.6959 9.39892 17.0454C9.64726 16.3949 9.69219 15.6843 9.52779 15.0077C9.36338 14.3311 8.99738 13.7204 8.47824 13.2564L8.24999 13.0508V4.8125C8.24944 4.26566 8.03197 3.74137 7.64529 3.3547C7.25862 2.96802 6.73433 2.75055 6.18749 2.75Z" fill="#27AE60"/>
</svg>
